<svg width="602" height="338" xmlns="http://www.w3.org/2000/svg" xmlns:xlink="http://www.w3.org/1999/xlink" xml:space="preserve" overflow="hidden"><defs><clipPath id="clip0"><rect x="103" y="187" width="602" height="338"/></clipPath></defs><g clip-path="url(#clip0)" transform="translate(-103 -187)"><path d="M0 0 600.889 0 600.889 338 0 338Z" fill="#FFFFFF" transform="matrix(1.00185 0 0 1 103 187)"/><path d="M125.811 316.593 219.7 316.593 219.7 331.616 125.811 331.616Z" stroke="#2F528F" stroke-width="0.625926" stroke-miterlimit="8" fill="#4CD1D4" transform="matrix(1.00185 0 0 1 103 187)"/><text fill="#FFFFFF" font-family="Calibri,Calibri_MSFontService,sans-serif" font-weight="400" font-size="15" transform="matrix(0.7525 0 0 0.751111 234.7 514)">Custom</text><text fill="#FFFFFF" font-family="Calibri,Calibri_MSFontService,sans-serif" font-weight="400" font-size="15" transform="matrix(0.7525 0 0 0.751111 270.068 514)">.</text><text fill="#FFFFFF" font-family="Calibri,Calibri_MSFontService,sans-serif" font-weight="400" font-size="15" transform="matrix(0.7525 0 0 0.751111 273.078 514)">exception</text><path d="M251.247 316.593 345.136 316.593 345.136 331.616 251.247 331.616Z" stroke="#2F528F" stroke-width="0.625926" stroke-miterlimit="8" fill="#5BC5AC" transform="matrix(1.00185 0 0 1 103 187)"/><text fill="#FFFFFF" font-family="Calibri,Calibri_MSFontService,sans-serif" font-weight="400" font-size="15" transform="matrix(0.7525 0 0 0.751111 360.013 514)">Contract</text><text fill="#FFFFFF" font-family="Calibri,Calibri_MSFontService,sans-serif" font-weight="400" font-size="15" transform="matrix(0.7525 0 0 0.751111 399.143 514)">.</text><text fill="#FFFFFF" font-family="Calibri,Calibri_MSFontService,sans-serif" font-weight="400" font-size="15" transform="matrix(0.7525 0 0 0.751111 402.153 514)">common</text><path d="M251.247 291.056 345.136 291.056 345.136 306.829 251.247 306.829Z" stroke="#2F528F" stroke-width="0.625926" stroke-miterlimit="8" fill="#5BC5AC" transform="matrix(1.00185 0 0 1 103 187)"/><text fill="#FFFFFF" font-family="Calibri,Calibri_MSFontService,sans-serif" font-weight="400" font-size="15" transform="matrix(0.7525 0 0 0.751111 390.855 490)">Dtos</text><path d="M430.011 270.024 523.9 270.024 523.9 285.047 430.011 285.047Z" stroke="#2F528F" stroke-width="0.625926" stroke-miterlimit="8" fill="#5BC5AC" transform="matrix(1.00185 0 0 1 103 187)"/><text fill="#FFFFFF" font-family="Calibri,Calibri_MSFontService,sans-serif" font-weight="400" font-size="15" transform="matrix(0.7525 0 0 0.751111 558.591 468)">Infra</text><text fill="#FFFFFF" font-family="Calibri,Calibri_MSFontService,sans-serif" font-weight="400" font-size="15" transform="matrix(0.7525 0 0 0.751111 580.413 468)">.</text><text fill="#FFFFFF" font-family="Calibri,Calibri_MSFontService,sans-serif" font-weight="400" font-size="15" transform="matrix(0.7525 0 0 0.751111 583.423 468)">http</text><path d="M251.247 245.238 345.136 245.238 345.136 261.011 251.247 261.011Z" stroke="#2F528F" stroke-width="0.625926" stroke-miterlimit="8" fill="#5BC5AC" transform="matrix(1.00185 0 0 1 103 187)"/><text fill="#FFFFFF" font-family="Calibri,Calibri_MSFontService,sans-serif" font-weight="400" font-size="15" transform="matrix(0.7525 0 0 0.751111 360.97 443)">Services</text><text fill="#FFFFFF" font-family="Calibri,Calibri_MSFontService,sans-serif" font-weight="400" font-size="15" transform="matrix(0.7525 0 0 0.751111 399.347 443)">.</text><text fill="#FFFFFF" font-family="Calibri,Calibri_MSFontService,sans-serif" font-weight="400" font-size="15" transform="matrix(0.7525 0 0 0.751111 402.357 443)">common</text><path d="M251.247 270.024 345.136 270.024 345.136 285.047 251.247 285.047Z" stroke="#2F528F" stroke-width="0.625926" stroke-miterlimit="8" fill="#5BC5AC" transform="matrix(1.00185 0 0 1 103 187)"/><text fill="#FFFFFF" font-family="Calibri,Calibri_MSFontService,sans-serif" font-weight="400" font-size="15" transform="matrix(0.7525 0 0 0.751111 367.751 468)">Caching</text><text fill="#FFFFFF" font-family="Calibri,Calibri_MSFontService,sans-serif" font-weight="400" font-size="15" transform="matrix(0.7525 0 0 0.751111 403.871 468)">.</text><text fill="#FFFFFF" font-family="Calibri,Calibri_MSFontService,sans-serif" font-weight="400" font-size="15" transform="matrix(0.7525 0 0 0.751111 406.881 468)">reddis</text><path d="M251.998 96.5178 345.887 96.5178 345.887 112.291 251.998 112.291Z" stroke="#2F528F" stroke-width="0.625926" stroke-miterlimit="8" fill="#5BC5AC" transform="matrix(1.00185 0 0 1 103 187)"/><text fill="#FFFFFF" font-family="Calibri,Calibri_MSFontService,sans-serif" font-weight="400" font-size="15" transform="matrix(0.7525 0 0 0.751111 377.385 295)">Infra</text><text fill="#FFFFFF" font-family="Calibri,Calibri_MSFontService,sans-serif" font-weight="400" font-size="15" transform="matrix(0.7525 0 0 0.751111 399.207 295)">.</text><text fill="#FFFFFF" font-family="Calibri,Calibri_MSFontService,sans-serif" font-weight="400" font-size="15" transform="matrix(0.7525 0 0 0.751111 402.217 295)">proxy</text><path d="M251.998 120.553 345.887 120.553 345.887 136.327 251.998 136.327Z" stroke="#2F528F" stroke-width="0.625926" stroke-miterlimit="8" fill="#5BC5AC" transform="matrix(1.00185 0 0 1 103 187)"/><text fill="#FFFFFF" font-family="Calibri,Calibri_MSFontService,sans-serif" font-weight="400" font-size="15" transform="matrix(0.7525 0 0 0.751111 383.102 318)">Infra</text><text fill="#FFFFFF" font-family="Calibri,Calibri_MSFontService,sans-serif" font-weight="400" font-size="15" transform="matrix(0.7525 0 0 0.751111 404.925 318)">.</text><text fill="#FFFFFF" font-family="Calibri,Calibri_MSFontService,sans-serif" font-weight="400" font-size="15" transform="matrix(0.7525 0 0 0.751111 407.935 318)">dal</text><path d="M430.011 84.5 523.9 84.5 523.9 100.273 430.011 100.273Z" stroke="#2F528F" stroke-width="0.625926" stroke-miterlimit="8" fill="#4CD1D4" transform="matrix(1.00185 0 0 1 103 187)"/><text fill="#FFFFFF" font-family="Calibri,Calibri_MSFontService,sans-serif" font-weight="400" font-size="15" transform="matrix(0.7525 0 0 0.751111 554.433 282)">Annotation</text><path d="M430.011 110.789 523.9 110.789 523.9 126.562 430.011 126.562Z" stroke="#2F528F" stroke-width="0.625926" stroke-miterlimit="8" fill="#4CD1D4" transform="matrix(1.00185 0 0 1 103 187)"/><text fill="#FFFFFF" font-family="Calibri,Calibri_MSFontService,sans-serif" font-weight="400" font-size="13" transform="matrix(0.7525 0 0 0.751111 539.423 308)">Data</text><text fill="#FFFFFF" font-family="Calibri,Calibri_MSFontService,sans-serif" font-weight="400" font-size="13" transform="matrix(0.7525 0 0 0.751111 558.988 308)">.</text><text fill="#FFFFFF" font-family="Calibri,Calibri_MSFontService,sans-serif" font-weight="400" font-size="13" transform="matrix(0.7525 0 0 0.751111 561.245 308)">Normalizatiom</text><path d="M251.998 73.9844 345.136 73.9844 345.136 89.7578 251.998 89.7578Z" stroke="#2F528F" stroke-width="0.625926" stroke-miterlimit="8" fill="#5BC5AC" transform="matrix(1.00185 0 0 1 103 187)"/><text fill="#FFFFFF" font-family="Calibri,Calibri_MSFontService,sans-serif" font-weight="400" font-size="15" transform="matrix(0.7525 0 0 0.751111 386.328 273)">Helper</text><path d="M251.247 4.88222 345.136 4.88222 345.136 20.6556 251.247 20.6556Z" stroke="#2F528F" stroke-width="0.625926" stroke-miterlimit="8" fill="#5BC5AC" transform="matrix(1.00185 0 0 1 103 187)"/><text fill="#FFFFFF" font-family="Calibri,Calibri_MSFontService,sans-serif" font-weight="400" font-size="15" transform="matrix(0.7525 0 0 0.751111 374.112 203)">middleware</text><path d="M251.998 29.6689 345.136 29.6689 345.136 44.6911 251.998 44.6911Z" stroke="#2F528F" stroke-width="0.625926" stroke-miterlimit="8" fill="#5BC5AC" transform="matrix(1.00185 0 0 1 103 187)"/><text fill="#FFFFFF" font-family="Calibri,Calibri_MSFontService,sans-serif" font-weight="400" font-size="15" transform="matrix(0.7525 0 0 0.751111 373.446 228)">Helathcheck</text><path d="M140.833 74.7355 233.971 74.7355 233.971 92.0111 140.833 92.0111Z" stroke="#2F528F" stroke-width="0.625926" stroke-miterlimit="8" fill="#5BC5AC" transform="matrix(1.00185 0 0 1 103 187)"/><text fill="#FFFFFF" font-family="Calibri,Calibri_MSFontService,sans-serif" font-weight="400" font-size="15" transform="matrix(0.7525 0 0 0.751111 279.298 274)">Feed</text><path d="M251.247 221.202 345.136 221.202 345.136 236.224 251.247 236.224Z" stroke="#2F528F" stroke-width="0.625926" stroke-miterlimit="8" fill="#5BC5AC" transform="matrix(1.00185 0 0 1 103 187)"/><text fill="#FFFFFF" font-family="Calibri,Calibri_MSFontService,sans-serif" font-weight="400" font-size="15" transform="matrix(0.7525 0 0 0.751111 377.24 419)">Rabbit</text><text fill="#FFFFFF" font-family="Calibri,Calibri_MSFontService,sans-serif" font-weight="400" font-size="15" transform="matrix(0.7525 0 0 0.751111 407.34 419)">.</text><text fill="#FFFFFF" font-family="Calibri,Calibri_MSFontService,sans-serif" font-weight="400" font-size="15" transform="matrix(0.7525 0 0 0.751111 410.35 419)">Mq</text><path d="M251.998 195.664 345.136 195.664 345.136 210.687 251.998 210.687Z" stroke="#2F528F" stroke-width="0.625926" stroke-miterlimit="8" fill="#5BC5AC" transform="matrix(1.00185 0 0 1 103 187)"/><text fill="#FFFFFF" font-family="Calibri,Calibri_MSFontService,sans-serif" font-weight="400" font-size="15" transform="matrix(0.7525 0 0 0.751111 374.84 394)">massTransit</text><path d="M251.998 144.589 345.887 144.589 345.887 159.611 251.998 159.611Z" stroke="#2F528F" stroke-width="0.625926" stroke-miterlimit="8" fill="#5BC5AC" transform="matrix(1.00185 0 0 1 103 187)"/><text fill="#FFFFFF" font-family="Calibri,Calibri_MSFontService,sans-serif" font-weight="400" font-size="15" transform="matrix(0.7525 0 0 0.751111 389.734 342)">Audit</text><path d="M251.998 52.2022 345.887 52.2022 345.887 67.2244 251.998 67.2244Z" stroke="#2F528F" stroke-width="0.625926" stroke-miterlimit="8" fill="#5BC5AC" transform="matrix(1.00185 0 0 1 103 187)"/><text fill="#FFFFFF" font-family="Calibri,Calibri_MSFontService,sans-serif" font-weight="400" font-size="15" transform="matrix(0.7525 0 0 0.751111 387.597 250)">parser</text><path d="M297.972 306.829 297.972 313.256 297.659 313.256 297.659 306.829ZM299.693 312.63 297.816 316.386 295.938 312.63Z" fill="#4472C4" transform="matrix(1.00185 0 0 1 103 187)"/><path d="M298.723 44.6826 298.94 48.6663 298.628 48.6833 298.41 44.6996ZM300.625 47.9478 298.953 51.7998 296.874 48.1519Z" fill="#4472C4" transform="matrix(1.00185 0 0 1 103 187)"/><path d="M297.972 20.6488 298.223 26.4498 297.911 26.4633 297.659 20.6623ZM299.916 25.7498 298.202 29.5833 296.164 25.9126Z" fill="#4472C4" transform="matrix(1.00185 0 0 1 103 187)"/><path d="M187.432 91.8571 249.013 103.681 248.954 103.989 187.373 92.1651ZM248.723 101.873 252.057 104.425 248.015 105.561Z" fill="#4472C4" transform="matrix(1.00185 0 0 1 103 187)"/><path d="M298.723 89.7495 298.94 93.7327 298.628 93.7499 298.41 89.766ZM300.625 93.0146 298.953 96.8663 296.874 93.2181Z" fill="#4472C4" transform="matrix(1.00185 0 0 1 103 187)"/><path d="M0.15623-0.00886747 0.365772 3.68292 0.0533119 3.70065-0.15623 0.00886747ZM2.04884 2.96045 0.386891 6.81639-1.70069 3.17327Z" fill="#4472C4" transform="matrix(-1.00185 0 0 1 402.506 254.224)"/><path d="M12.3933 94.2644 106.282 94.2644 106.282 110.038 12.3933 110.038Z" stroke="#2F528F" stroke-width="0.625926" stroke-miterlimit="8" fill="#5BC5AC" transform="matrix(1.00185 0 0 1 103 187)"/><text fill="#FFFFFF" font-family="Calibri,Calibri_MSFontService,sans-serif" font-weight="400" font-size="15" transform="matrix(0.7525 0 0 0.751111 145.23 293)">logging</text><path d="M12.3933 38.6822 106.282 38.6822 106.282 54.4556 12.3933 54.4556Z" stroke="#2F528F" stroke-width="0.625926" stroke-miterlimit="8" fill="#5BC5AC" transform="matrix(1.00185 0 0 1 103 187)"/><text fill="#FFFFFF" font-family="Calibri,Calibri_MSFontService,sans-serif" font-weight="400" font-size="15" transform="matrix(0.7525 0 0 0.751111 120.592 237)">jwtAuthentication</text><path d="M12.3933 62.7178 106.282 62.7178 106.282 78.4911 12.3933 78.4911Z" stroke="#2F528F" stroke-width="0.625926" stroke-miterlimit="8" fill="#5BC5AC" transform="matrix(1.00185 0 0 1 103 187)"/><text fill="#FFFFFF" font-family="Calibri,Calibri_MSFontService,sans-serif" font-weight="400" font-size="15" transform="matrix(0.7525 0 0 0.751111 150.239 261)">Vault</text><path d="M0.0354561-0.152412 142.224 32.9255 142.153 33.2303-0.0354561 0.152412ZM142.004 31.1071 145.237 33.787 141.153 34.7649Z" fill="#4472C4" transform="matrix(-1.00185 0 0 1 354.984 199.393)"/><path d="M0.0580993-0.145296 142.39 56.7685 142.273 57.0591-0.0580993 0.145296ZM142.447 54.9378 145.237 58.0757 141.053 58.4248Z" fill="#4472C4" transform="matrix(-1.00185 0 0 1 354.984 199.393)"/><path d="M345.156 252.593 473.763 269.128 473.724 269.439 345.115 252.904ZM473.362 267.341 476.847 269.683 472.883 271.066Z" fill="#4472C4" transform="matrix(1.00185 0 0 1 103 187)"/><path d="M299.474 136.327 299.474 141.467 299.162 141.467 299.162 136.327ZM301.196 140.84 299.318 144.596 297.44 140.84Z" fill="#4472C4" transform="matrix(1.00185 0 0 1 103 187)"/><path d="M297.972 261.011 297.972 267.083 297.659 267.083 297.659 261.011ZM299.693 266.457 297.816 270.213 295.938 266.457Z" fill="#4472C4" transform="matrix(1.00185 0 0 1 103 187)"/><path d="M297.972 285.047 297.972 287.923 297.659 287.923 297.659 285.047ZM299.693 287.297 297.816 291.053 295.938 287.297Z" fill="#4472C4" transform="matrix(1.00185 0 0 1 103 187)"/><path d="M297.972 236.224 297.972 242.008 297.659 242.008 297.659 236.224ZM299.693 241.382 297.816 245.138 295.938 241.382Z" fill="#4472C4" transform="matrix(1.00185 0 0 1 103 187)"/><path d="M0.156365-0.00604699 0.42271 6.88118 0.109981 6.89328-0.156365 0.00604699ZM2.11853 6.18921 0.387286 10.0145-1.63421 6.33433Z" fill="#4472C4" transform="matrix(-1.00185 0 0 1 401.755 397.687)"/><path d="M299.474 112.291 299.474 117.633 299.162 117.633 299.162 112.291ZM301.196 117.007 299.318 120.763 297.44 117.007Z" fill="#4472C4" transform="matrix(1.00185 0 0 1 103 187)"/><path d="M429.607 92.7066 348.223 82.7807 348.261 82.4705 429.645 92.3964ZM348.636 84.5653 345.136 82.2467 349.091 80.8376Z" fill="#4472C4" transform="matrix(1.00185 0 0 1 103 187)"/><path d="M429.563 119.139 347.943 83.6385 348.068 83.3515 429.688 118.852ZM347.831 85.4667 345.136 82.2467 349.328 82.0228Z" fill="#4472C4" transform="matrix(1.00185 0 0 1 103 187)"/><path d="M251.998 170.127 345.887 170.127 345.887 185.149 251.998 185.149Z" stroke="#2F528F" stroke-width="0.625926" stroke-miterlimit="8" fill="#5BC5AC" transform="matrix(1.00185 0 0 1 103 187)"/><text fill="#FFFFFF" font-family="Calibri,Calibri_MSFontService,sans-serif" font-weight="400" font-size="15" transform="matrix(0.7525 0 0 0.751111 368.857 368)">AuditProducer</text><path d="M0.156364-0.00605528 0.422446 6.86491 0.109717 6.87702-0.156364 0.00605528ZM2.11823 6.17285 0.387187 9.99827-1.63451 6.31817Z" fill="#4472C4" transform="matrix(-1.00185 0 0 1 402.506 372.149)"/><path d="M299.474 159.611 299.474 166.494 299.162 166.494 299.162 159.611ZM301.196 165.869 299.318 169.624 297.44 165.869Z" fill="#4472C4" transform="matrix(1.00185 0 0 1 103 187)"/><path d="M0.156472-0.00171316 0.296926 12.8267-0.0160182 12.8301-0.156472 0.00171316ZM2.01127 12.182 0.174717 15.9579-1.74406 12.2231Z" fill="#4472C4" transform="matrix(-1.00185 0 0 1 162.246 265.491)"/><path d="M0.000434824-0.156481 28.424-0.0774981 28.4232 0.235464-0.000434824 0.156481ZM27.8028-1.80053 31.5532 0.0876787 27.7924 1.95501Z" fill="#4472C4" transform="matrix(1.00185 0 0 -1 323.106 511.192)"/><text font-family="Calibri Light,Calibri Light_MSFontService,sans-serif" font-weight="700" font-size="26" transform="matrix(0.7525 0 0 0.751111 111.181 211)">Hirarechey</text><text font-family="Calibri Light,Calibri Light_MSFontService,sans-serif" font-weight="700" font-size="26" transform="matrix(0.7525 0 0 0.751111 198.214 211)">Ta</text><text font-family="Calibri Light,Calibri Light_MSFontService,sans-serif" font-weight="700" font-size="26" transform="matrix(0.7525 0 0 0.751111 217.026 211)">9</text><text font-family="Calibri Light,Calibri Light_MSFontService,sans-serif" font-weight="700" font-size="26" transform="matrix(0.7525 0 0 0.751111 228.913 211)">Nugets</text><path d="M8.166 26.5609 49.4771 26.5609 90.7883 26.5609 90.7883 27.3121 49.4771 27.3121 8.166 27.3121Z" fill-rule="evenodd" transform="matrix(1.00185 0 0 1 103 187)"/><path d="M90.7883 26.5609 95.295 26.5609 95.295 27.3121 90.7883 27.3121Z" fill-rule="evenodd" transform="matrix(1.00185 0 0 1 103 187)"/><path d="M95.295 26.5609 137.357 26.5609 179.419 26.5609 179.419 27.3121 137.357 27.3121 95.295 27.3121Z" fill-rule="evenodd" transform="matrix(1.00185 0 0 1 103 187)"/></g></svg>